<svg height="686" width="720" xmlns="http://www.w3.org/2000/svg">
<rect height="686" fill="#555" width="720"></rect>
<text fill="#7f7" font-family="Courier New" font-size="12" xml:space="preserve">
<tspan x="10" y="26">2017-10-17 06:09:56 +0800</tspan>
<tspan x="10" y="42">update.rollup</tspan>
<tspan x="10" y="58"></tspan>
<tspan x="10" y="74">2017-10-02 18:47:23 +0900</tspan>
<tspan x="10" y="90">[build clean]</tspan>
<tspan x="10" y="106"></tspan>
<tspan x="10" y="122">2017-10-02 18:43:23 +0900</tspan>
<tspan x="10" y="138">[npm publish] - npm publish 2017.10.1</tspan>
<tspan x="10" y="154">- add cli-help section in README.md</tspan>
<tspan x="10" y="170"></tspan>
<tspan x="10" y="186">2017-08-04 17:22:48 +0800</tspan>
<tspan x="10" y="202">[npm publish] - npm publish 2017.7.25</tspan>
<tspan x="10" y="218">- use heroku for online demo instead of github</tspan>
<tspan x="10" y="234"></tspan>
<tspan x="10" y="250">2017-07-25 11:52:40 +0800</tspan>
<tspan x="10" y="266">[npm publish] - npm publish 2017.7.24</tspan>
<tspan x="10" y="282">- add extra elasticsearch api /__info</tspan>
<tspan x="10" y="298">- add function local.middlewareBulkPut</tspan>
<tspan x="10" y="314">- add functional kibana demo</tspan>
<tspan x="10" y="330">- add info.title and info.description to swagger.json</tspan>
<tspan x="10" y="346">- add logstash for full elk stack</tspan>
<tspan x="10" y="362">- add quickstart shell example in README.md</tspan>
<tspan x="10" y="378">- remove file lib.elasticsearch.accounts._json</tspan>
<tspan x="10" y="394"></tspan>
<tspan x="10" y="410">2017-07-16 02:30:22 +0800</tspan>
<tspan x="10" y="426">[npm publish] - npm publish 2017.6.2</tspan>
<tspan x="10" y="442">- persist db data at $PWD/tmp/elasticsearch.data.$NODE_ENV</tspan>
<tspan x="10" y="458"></tspan>
<tspan x="10" y="474">2017-07-05 19:22:50 +0800</tspan>
<tspan x="10" y="490">[npm publish] - npm publish 2017.6.1</tspan>
<tspan x="10" y="506">- persist db data at $PWD/tmp/elasticsearch.data.$NODE_ENV</tspan>
<tspan x="10" y="522">- update docs</tspan>
<tspan x="10" y="538"></tspan>
<tspan x="10" y="554">2017-06-21 20:19:43 +0800</tspan>
<tspan x="10" y="570">[npm publish] - npm publish 2017.6.1</tspan>
<tspan x="10" y="586">- add kibana to buildApp</tspan>
<tspan x="10" y="602">- enable cors in github</tspan>
<tspan x="10" y="618">- initial working server</tspan>
<tspan x="10" y="634"></tspan>
<tspan x="10" y="650">2014-03-26 02:31:50 +0700</tspan>
<tspan x="10" y="666">add blank README.md</tspan>
</text>
</svg>
