<svg height="1358" width="720" xmlns="http://www.w3.org/2000/svg">
<rect height="1358" fill="#555" width="720"></rect>
<text fill="#7f7" font-family="Courier New" font-size="12" xml:space="preserve">
<tspan x="10" y="26">2017-10-02 18:32:22 +0900</tspan>
<tspan x="10" y="42">- npm publish 2017.10.1</tspan>
<tspan x="10" y="58">- add cli-help section in README.md</tspan>
<tspan x="10" y="74"></tspan>
<tspan x="10" y="90">2017-10-02 18:23:13 +0900</tspan>
<tspan x="10" y="106">update</tspan>
<tspan x="10" y="122"></tspan>
<tspan x="10" y="138">2017-09-19 08:20:08 +0700</tspan>
<tspan x="10" y="154">fix screenshot</tspan>
<tspan x="10" y="170"></tspan>
<tspan x="10" y="186">2017-09-19 02:12:55 +0700</tspan>
<tspan x="10" y="202">build.app</tspan>
<tspan x="10" y="218"></tspan>
<tspan x="10" y="234">2017-09-17 18:31:26 +0700</tspan>
<tspan x="10" y="250">merge init-test into lib.utility2.js</tspan>
<tspan x="10" y="266"></tspan>
<tspan x="10" y="282">2017-09-17 17:50:39 +0700</tspan>
<tspan x="10" y="298">merge init-test into lib.utility2.js</tspan>
<tspan x="10" y="314"></tspan>
<tspan x="10" y="330">2017-09-17 17:37:58 +0700</tspan>
<tspan x="10" y="346">init test</tspan>
<tspan x="10" y="362"></tspan>
<tspan x="10" y="378">2017-09-17 07:53:11 +0700</tspan>
<tspan x="10" y="394">init test</tspan>
<tspan x="10" y="410"></tspan>
<tspan x="10" y="426">2017-09-16 17:44:21 +0700</tspan>
<tspan x="10" y="442">update</tspan>
<tspan x="10" y="458"></tspan>
<tspan x="10" y="474">2017-09-14 04:55:26 +0700</tspan>
<tspan x="10" y="490">update local.testCase_webpage_default</tspan>
<tspan x="10" y="506"></tspan>
<tspan x="10" y="522">2017-09-13 03:34:16 +0700</tspan>
<tspan x="10" y="538">- add cli-help doc to README.md</tspan>
<tspan x="10" y="554"></tspan>
<tspan x="10" y="570">2017-09-13 03:00:54 +0700</tspan>
<tspan x="10" y="586">- add cli-help doc to README.md</tspan>
<tspan x="10" y="602"></tspan>
<tspan x="10" y="618">2017-09-13 02:43:56 +0700</tspan>
<tspan x="10" y="634">- add cli-help doc to README.md</tspan>
<tspan x="10" y="650"></tspan>
<tspan x="10" y="666">2017-09-13 02:37:32 +0700</tspan>
<tspan x="10" y="682">- add cli-help doc to README.md</tspan>
<tspan x="10" y="698"></tspan>
<tspan x="10" y="714">2017-09-13 01:39:55 +0700</tspan>
<tspan x="10" y="730">- add cli-help doc to README.md</tspan>
<tspan x="10" y="746"></tspan>
<tspan x="10" y="762">2017-09-03 03:47:34 +0800</tspan>
<tspan x="10" y="778">require.modules</tspan>
<tspan x="10" y="794"></tspan>
<tspan x="10" y="810">2017-09-02 20:29:39 +0800</tspan>
<tspan x="10" y="826">- revert String.prototype.match back to RegExp.prototype.exec</tspan>
<tspan x="10" y="842"></tspan>
<tspan x="10" y="858">2017-08-04 17:22:48 +0800</tspan>
<tspan x="10" y="874">[npm publish] - npm publish 2017.7.25</tspan>
<tspan x="10" y="890">- use heroku for online demo instead of github</tspan>
<tspan x="10" y="906"></tspan>
<tspan x="10" y="922">2017-07-25 11:52:40 +0800</tspan>
<tspan x="10" y="938">[npm publish] - npm publish 2017.7.24</tspan>
<tspan x="10" y="954">- add extra elasticsearch api /__info</tspan>
<tspan x="10" y="970">- add function local.middlewareBulkPut</tspan>
<tspan x="10" y="986">- add functional kibana demo</tspan>
<tspan x="10" y="1002">- add info.title and info.description to swagger.json</tspan>
<tspan x="10" y="1018">- add logstash for full elk stack</tspan>
<tspan x="10" y="1034">- add quickstart shell example in README.md</tspan>
<tspan x="10" y="1050">- remove file lib.elasticsearch.accounts._json</tspan>
<tspan x="10" y="1066"></tspan>
<tspan x="10" y="1082">2017-07-16 02:30:22 +0800</tspan>
<tspan x="10" y="1098">[npm publish] - npm publish 2017.6.2</tspan>
<tspan x="10" y="1114">- persist db data at $PWD/tmp/elasticsearch.data.$NODE_ENV</tspan>
<tspan x="10" y="1130"></tspan>
<tspan x="10" y="1146">2017-07-05 19:22:50 +0800</tspan>
<tspan x="10" y="1162">[npm publish] - npm publish 2017.6.1</tspan>
<tspan x="10" y="1178">- persist db data at $PWD/tmp/elasticsearch.data.$NODE_ENV</tspan>
<tspan x="10" y="1194">- update docs</tspan>
<tspan x="10" y="1210"></tspan>
<tspan x="10" y="1226">2017-06-21 20:19:43 +0800</tspan>
<tspan x="10" y="1242">[npm publish] - npm publish 2017.6.1</tspan>
<tspan x="10" y="1258">- add kibana to buildApp</tspan>
<tspan x="10" y="1274">- enable cors in github</tspan>
<tspan x="10" y="1290">- initial working server</tspan>
<tspan x="10" y="1306"></tspan>
<tspan x="10" y="1322">2014-03-26 02:31:50 +0700</tspan>
<tspan x="10" y="1338">add blank README.md</tspan>
</text>
</svg>
