<svg height="1198" width="720" xmlns="http://www.w3.org/2000/svg">
<rect height="1198" fill="#555" width="720"></rect>
<text fill="#7f7" font-family="Courier New" font-size="12" xml:space="preserve">
<tspan x="10" y="26">2017-09-19 02:12:55 +0700</tspan>
<tspan x="10" y="42">build.app</tspan>
<tspan x="10" y="58"></tspan>
<tspan x="10" y="74">2017-09-17 18:31:26 +0700</tspan>
<tspan x="10" y="90">merge init-test into lib.utility2.js</tspan>
<tspan x="10" y="106"></tspan>
<tspan x="10" y="122">2017-09-17 17:50:39 +0700</tspan>
<tspan x="10" y="138">merge init-test into lib.utility2.js</tspan>
<tspan x="10" y="154"></tspan>
<tspan x="10" y="170">2017-09-17 17:37:58 +0700</tspan>
<tspan x="10" y="186">init test</tspan>
<tspan x="10" y="202"></tspan>
<tspan x="10" y="218">2017-09-17 07:53:11 +0700</tspan>
<tspan x="10" y="234">init test</tspan>
<tspan x="10" y="250"></tspan>
<tspan x="10" y="266">2017-09-16 17:44:21 +0700</tspan>
<tspan x="10" y="282">update</tspan>
<tspan x="10" y="298"></tspan>
<tspan x="10" y="314">2017-09-14 04:55:26 +0700</tspan>
<tspan x="10" y="330">update local.testCase_webpage_default</tspan>
<tspan x="10" y="346"></tspan>
<tspan x="10" y="362">2017-09-13 03:34:16 +0700</tspan>
<tspan x="10" y="378">- add cli-help doc to README.md</tspan>
<tspan x="10" y="394"></tspan>
<tspan x="10" y="410">2017-09-13 03:00:54 +0700</tspan>
<tspan x="10" y="426">- add cli-help doc to README.md</tspan>
<tspan x="10" y="442"></tspan>
<tspan x="10" y="458">2017-09-13 02:43:56 +0700</tspan>
<tspan x="10" y="474">- add cli-help doc to README.md</tspan>
<tspan x="10" y="490"></tspan>
<tspan x="10" y="506">2017-09-13 02:37:32 +0700</tspan>
<tspan x="10" y="522">- add cli-help doc to README.md</tspan>
<tspan x="10" y="538"></tspan>
<tspan x="10" y="554">2017-09-13 01:39:55 +0700</tspan>
<tspan x="10" y="570">- add cli-help doc to README.md</tspan>
<tspan x="10" y="586"></tspan>
<tspan x="10" y="602">2017-09-03 03:47:34 +0800</tspan>
<tspan x="10" y="618">require.modules</tspan>
<tspan x="10" y="634"></tspan>
<tspan x="10" y="650">2017-09-02 20:29:39 +0800</tspan>
<tspan x="10" y="666">- revert String.prototype.match back to RegExp.prototype.exec</tspan>
<tspan x="10" y="682"></tspan>
<tspan x="10" y="698">2017-08-04 17:22:48 +0800</tspan>
<tspan x="10" y="714">[npm publish] - npm publish 2017.7.25</tspan>
<tspan x="10" y="730">- use heroku for online demo instead of github</tspan>
<tspan x="10" y="746"></tspan>
<tspan x="10" y="762">2017-07-25 11:52:40 +0800</tspan>
<tspan x="10" y="778">[npm publish] - npm publish 2017.7.24</tspan>
<tspan x="10" y="794">- add extra elasticsearch api /__info</tspan>
<tspan x="10" y="810">- add function local.middlewareBulkPut</tspan>
<tspan x="10" y="826">- add functional kibana demo</tspan>
<tspan x="10" y="842">- add info.title and info.description to swagger.json</tspan>
<tspan x="10" y="858">- add logstash for full elk stack</tspan>
<tspan x="10" y="874">- add quickstart shell example in README.md</tspan>
<tspan x="10" y="890">- remove file lib.elasticsearch.accounts._json</tspan>
<tspan x="10" y="906"></tspan>
<tspan x="10" y="922">2017-07-16 02:30:22 +0800</tspan>
<tspan x="10" y="938">[npm publish] - npm publish 2017.6.2</tspan>
<tspan x="10" y="954">- persist db data at $PWD/tmp/elasticsearch.data.$NODE_ENV</tspan>
<tspan x="10" y="970"></tspan>
<tspan x="10" y="986">2017-07-05 19:22:50 +0800</tspan>
<tspan x="10" y="1002">[npm publish] - npm publish 2017.6.1</tspan>
<tspan x="10" y="1018">- persist db data at $PWD/tmp/elasticsearch.data.$NODE_ENV</tspan>
<tspan x="10" y="1034">- update docs</tspan>
<tspan x="10" y="1050"></tspan>
<tspan x="10" y="1066">2017-06-21 20:19:43 +0800</tspan>
<tspan x="10" y="1082">[npm publish] - npm publish 2017.6.1</tspan>
<tspan x="10" y="1098">- add kibana to buildApp</tspan>
<tspan x="10" y="1114">- enable cors in github</tspan>
<tspan x="10" y="1130">- initial working server</tspan>
<tspan x="10" y="1146"></tspan>
<tspan x="10" y="1162">2014-03-26 02:31:50 +0700</tspan>
<tspan x="10" y="1178">add blank README.md</tspan>
</text>
</svg>
