<svg height="638" width="720" xmlns="http://www.w3.org/2000/svg">
<rect height="638" fill="#555" width="720"></rect>
<text fill="#7f7" font-family="Courier New" font-size="12" xml:space="preserve">
<tspan x="10" y="26">2017-10-02 18:47:23 +0900</tspan>
<tspan x="10" y="42">[build clean]</tspan>
<tspan x="10" y="58"></tspan>
<tspan x="10" y="74">2017-10-02 18:43:23 +0900</tspan>
<tspan x="10" y="90">[npm publish] - npm publish 2017.10.1</tspan>
<tspan x="10" y="106">- add cli-help section in README.md</tspan>
<tspan x="10" y="122"></tspan>
<tspan x="10" y="138">2017-08-04 17:22:48 +0800</tspan>
<tspan x="10" y="154">[npm publish] - npm publish 2017.7.25</tspan>
<tspan x="10" y="170">- use heroku for online demo instead of github</tspan>
<tspan x="10" y="186"></tspan>
<tspan x="10" y="202">2017-07-25 11:52:40 +0800</tspan>
<tspan x="10" y="218">[npm publish] - npm publish 2017.7.24</tspan>
<tspan x="10" y="234">- add extra elasticsearch api /__info</tspan>
<tspan x="10" y="250">- add function local.middlewareBulkPut</tspan>
<tspan x="10" y="266">- add functional kibana demo</tspan>
<tspan x="10" y="282">- add info.title and info.description to swagger.json</tspan>
<tspan x="10" y="298">- add logstash for full elk stack</tspan>
<tspan x="10" y="314">- add quickstart shell example in README.md</tspan>
<tspan x="10" y="330">- remove file lib.elasticsearch.accounts._json</tspan>
<tspan x="10" y="346"></tspan>
<tspan x="10" y="362">2017-07-16 02:30:22 +0800</tspan>
<tspan x="10" y="378">[npm publish] - npm publish 2017.6.2</tspan>
<tspan x="10" y="394">- persist db data at $PWD/tmp/elasticsearch.data.$NODE_ENV</tspan>
<tspan x="10" y="410"></tspan>
<tspan x="10" y="426">2017-07-05 19:22:50 +0800</tspan>
<tspan x="10" y="442">[npm publish] - npm publish 2017.6.1</tspan>
<tspan x="10" y="458">- persist db data at $PWD/tmp/elasticsearch.data.$NODE_ENV</tspan>
<tspan x="10" y="474">- update docs</tspan>
<tspan x="10" y="490"></tspan>
<tspan x="10" y="506">2017-06-21 20:19:43 +0800</tspan>
<tspan x="10" y="522">[npm publish] - npm publish 2017.6.1</tspan>
<tspan x="10" y="538">- add kibana to buildApp</tspan>
<tspan x="10" y="554">- enable cors in github</tspan>
<tspan x="10" y="570">- initial working server</tspan>
<tspan x="10" y="586"></tspan>
<tspan x="10" y="602">2014-03-26 02:31:50 +0700</tspan>
<tspan x="10" y="618">add blank README.md</tspan>
</text>
</svg>
