<svg height="1102" width="720" xmlns="http://www.w3.org/2000/svg">
<rect height="1102" fill="#555" width="720"></rect>
<text fill="#7f7" font-family="Courier New" font-size="12" xml:space="preserve">
<tspan x="10" y="26">2017-09-17 17:50:39 +0700</tspan>
<tspan x="10" y="42">merge init-test into lib.utility2.js</tspan>
<tspan x="10" y="58"></tspan>
<tspan x="10" y="74">2017-09-17 17:37:58 +0700</tspan>
<tspan x="10" y="90">init test</tspan>
<tspan x="10" y="106"></tspan>
<tspan x="10" y="122">2017-09-17 07:53:11 +0700</tspan>
<tspan x="10" y="138">init test</tspan>
<tspan x="10" y="154"></tspan>
<tspan x="10" y="170">2017-09-16 17:44:21 +0700</tspan>
<tspan x="10" y="186">update</tspan>
<tspan x="10" y="202"></tspan>
<tspan x="10" y="218">2017-09-14 04:55:26 +0700</tspan>
<tspan x="10" y="234">update local.testCase_webpage_default</tspan>
<tspan x="10" y="250"></tspan>
<tspan x="10" y="266">2017-09-13 03:34:16 +0700</tspan>
<tspan x="10" y="282">- add cli-help doc to README.md</tspan>
<tspan x="10" y="298"></tspan>
<tspan x="10" y="314">2017-09-13 03:00:54 +0700</tspan>
<tspan x="10" y="330">- add cli-help doc to README.md</tspan>
<tspan x="10" y="346"></tspan>
<tspan x="10" y="362">2017-09-13 02:43:56 +0700</tspan>
<tspan x="10" y="378">- add cli-help doc to README.md</tspan>
<tspan x="10" y="394"></tspan>
<tspan x="10" y="410">2017-09-13 02:37:32 +0700</tspan>
<tspan x="10" y="426">- add cli-help doc to README.md</tspan>
<tspan x="10" y="442"></tspan>
<tspan x="10" y="458">2017-09-13 01:39:55 +0700</tspan>
<tspan x="10" y="474">- add cli-help doc to README.md</tspan>
<tspan x="10" y="490"></tspan>
<tspan x="10" y="506">2017-09-03 03:47:34 +0800</tspan>
<tspan x="10" y="522">require.modules</tspan>
<tspan x="10" y="538"></tspan>
<tspan x="10" y="554">2017-09-02 20:29:39 +0800</tspan>
<tspan x="10" y="570">- revert String.prototype.match back to RegExp.prototype.exec</tspan>
<tspan x="10" y="586"></tspan>
<tspan x="10" y="602">2017-08-04 17:22:48 +0800</tspan>
<tspan x="10" y="618">[npm publish] - npm publish 2017.7.25</tspan>
<tspan x="10" y="634">- use heroku for online demo instead of github</tspan>
<tspan x="10" y="650"></tspan>
<tspan x="10" y="666">2017-07-25 11:52:40 +0800</tspan>
<tspan x="10" y="682">[npm publish] - npm publish 2017.7.24</tspan>
<tspan x="10" y="698">- add extra elasticsearch api /__info</tspan>
<tspan x="10" y="714">- add function local.middlewareBulkPut</tspan>
<tspan x="10" y="730">- add functional kibana demo</tspan>
<tspan x="10" y="746">- add info.title and info.description to swagger.json</tspan>
<tspan x="10" y="762">- add logstash for full elk stack</tspan>
<tspan x="10" y="778">- add quickstart shell example in README.md</tspan>
<tspan x="10" y="794">- remove file lib.elasticsearch.accounts._json</tspan>
<tspan x="10" y="810"></tspan>
<tspan x="10" y="826">2017-07-16 02:30:22 +0800</tspan>
<tspan x="10" y="842">[npm publish] - npm publish 2017.6.2</tspan>
<tspan x="10" y="858">- persist db data at $PWD/tmp/elasticsearch.data.$NODE_ENV</tspan>
<tspan x="10" y="874"></tspan>
<tspan x="10" y="890">2017-07-05 19:22:50 +0800</tspan>
<tspan x="10" y="906">[npm publish] - npm publish 2017.6.1</tspan>
<tspan x="10" y="922">- persist db data at $PWD/tmp/elasticsearch.data.$NODE_ENV</tspan>
<tspan x="10" y="938">- update docs</tspan>
<tspan x="10" y="954"></tspan>
<tspan x="10" y="970">2017-06-21 20:19:43 +0800</tspan>
<tspan x="10" y="986">[npm publish] - npm publish 2017.6.1</tspan>
<tspan x="10" y="1002">- add kibana to buildApp</tspan>
<tspan x="10" y="1018">- enable cors in github</tspan>
<tspan x="10" y="1034">- initial working server</tspan>
<tspan x="10" y="1050"></tspan>
<tspan x="10" y="1066">2014-03-26 02:31:50 +0700</tspan>
<tspan x="10" y="1082">add blank README.md</tspan>
</text>
</svg>
