<svg height="590" width="720" xmlns="http://www.w3.org/2000/svg">
<rect height="590" fill="#555" width="720"></rect>
<text fill="#7f7" font-family="Courier New" font-size="12" xml:space="preserve">
<tspan x="10" y="26">2017-10-02 18:43:23 +0900</tspan>
<tspan x="10" y="42">[npm publish] - npm publish 2017.10.1</tspan>
<tspan x="10" y="58">- add cli-help section in README.md</tspan>
<tspan x="10" y="74"></tspan>
<tspan x="10" y="90">2017-08-04 17:22:48 +0800</tspan>
<tspan x="10" y="106">[npm publish] - npm publish 2017.7.25</tspan>
<tspan x="10" y="122">- use heroku for online demo instead of github</tspan>
<tspan x="10" y="138"></tspan>
<tspan x="10" y="154">2017-07-25 11:52:40 +0800</tspan>
<tspan x="10" y="170">[npm publish] - npm publish 2017.7.24</tspan>
<tspan x="10" y="186">- add extra elasticsearch api /__info</tspan>
<tspan x="10" y="202">- add function local.middlewareBulkPut</tspan>
<tspan x="10" y="218">- add functional kibana demo</tspan>
<tspan x="10" y="234">- add info.title and info.description to swagger.json</tspan>
<tspan x="10" y="250">- add logstash for full elk stack</tspan>
<tspan x="10" y="266">- add quickstart shell example in README.md</tspan>
<tspan x="10" y="282">- remove file lib.elasticsearch.accounts._json</tspan>
<tspan x="10" y="298"></tspan>
<tspan x="10" y="314">2017-07-16 02:30:22 +0800</tspan>
<tspan x="10" y="330">[npm publish] - npm publish 2017.6.2</tspan>
<tspan x="10" y="346">- persist db data at $PWD/tmp/elasticsearch.data.$NODE_ENV</tspan>
<tspan x="10" y="362"></tspan>
<tspan x="10" y="378">2017-07-05 19:22:50 +0800</tspan>
<tspan x="10" y="394">[npm publish] - npm publish 2017.6.1</tspan>
<tspan x="10" y="410">- persist db data at $PWD/tmp/elasticsearch.data.$NODE_ENV</tspan>
<tspan x="10" y="426">- update docs</tspan>
<tspan x="10" y="442"></tspan>
<tspan x="10" y="458">2017-06-21 20:19:43 +0800</tspan>
<tspan x="10" y="474">[npm publish] - npm publish 2017.6.1</tspan>
<tspan x="10" y="490">- add kibana to buildApp</tspan>
<tspan x="10" y="506">- enable cors in github</tspan>
<tspan x="10" y="522">- initial working server</tspan>
<tspan x="10" y="538"></tspan>
<tspan x="10" y="554">2014-03-26 02:31:50 +0700</tspan>
<tspan x="10" y="570">add blank README.md</tspan>
</text>
</svg>
